# xmcd CD database file
#
# Track frame offsets:
#	150
#	14920
#	30155
#	43422
#	59390
#	76755
#	93765
#	107907
#	123310
#	136035
#	149942
#	166045
#	178120
#	195145
#	213217
#	232052
#	245587
#	263012
#	277072
#	291892
#	304187
#
# Disc length: 4292 seconds
#
# Revision: 0
# Processed by: cddbd v1.5.2PL0 Copyright (c) Steve Scherf et al.
# Submitted via: CDex 1.70beta2
#
DISCID=2e10c215
DTITLE=Jones Country - Jones Country JCY-018
DYEAR=0000
DGENRE=Country
TTITLE0=Eddie Rabbitt/Best Year Of My Life
TTITLE1=Eddie Rabbitt/Wanderer
TTITLE2=Eddie Rabbitt/Warning Sign
TTITLE3=Eddie Rabbitt/We Must Be Doin' Somethin' Right
TTITLE4=Eddy Raven/'Til You Cry
TTITLE5=Eddy Raven/Joe Knows How To Live
TTITLE6=Eddy Raven/Right Hand Man
TTITLE7=Eddy Raven/Sometimes A Lady
TTITLE8=Eddy Raven/You're Never Too Old For Young Love
TTITLE9=Eddy Raven and Patsy Cline/Have You Ever Been Lonely (Have You Ever Been Blue)
TTITLE10=Johnny Rodriguez/Down On The Rio Grande
TTITLE11=Kenny Rogers/Blaze Of Glory
TTITLE12=Kenny Rogers and Kim Carnes/Don't Fall In Love With A Dreamer
TTITLE13=Ronnie Milsap and Kenny Rogers/Make No Mistake, She's Mine
TTITLE14=Billy Joe Royal/I'll Pin A Note On Your Pillow
TTITLE15=Billy Joe Royal/Tell It Like It Is
TTITLE16=Billy Joe Royal/Till I Can't Take It Anymore
TTITLE17=John Schneider/At The Sound Of The Tone
TTITLE18=John Schneider/Country Girls
TTITLE19=John Schneider/I've Been Around Enough To Know
TTITLE20=John Schneider/Love, You Ain't Seen The Last Of Me
EXTD=YEAR: 0000
EXTT0=
EXTT1=
EXTT2=
EXTT3=
EXTT4=
EXTT5=
EXTT6=
EXTT7=
EXTT8=
EXTT9=
EXTT10=
EXTT11=
EXTT12=
EXTT13=
EXTT14=
EXTT15=
EXTT16=
EXTT17=
EXTT18=
EXTT19=
EXTT20=
PLAYORDER=
